<?xml version="1.0" encoding="UTF-8" standalone="no"?>
<svg
   xmlns:dc="http://purl.org/dc/elements/1.1/"
   xmlns:cc="http://creativecommons.org/ns#"
   xmlns:rdf="http://www.w3.org/1999/02/22-rdf-syntax-ns#"
   xmlns:svg="http://www.w3.org/2000/svg"
   xmlns="http://www.w3.org/2000/svg"
   xmlns:sodipodi="http://sodipodi.sourceforge.net/DTD/sodipodi-0.dtd"
   xmlns:inkscape="http://www.inkscape.org/namespaces/inkscape"
   version="1.0"
   width="273.197705pt"
   height="84.051798pt"
   viewBox="0 0 273.197705 84.051798"
   preserveAspectRatio="xMidYMid meet"
   id="svg2"
   inkscape:version="0.91 r13725"
   sodipodi:docname="logo2.svg"
   inkscape:export-filename="/home/pablo/Descargas/logo2.png"
   inkscape:export-xdpi="300"
   inkscape:export-ydpi="300">
  <defs
     id="defs18" />
  <sodipodi:namedview
     pagecolor="#ffffff"
     bordercolor="#666666"
     borderopacity="1"
     objecttolerance="10"
     gridtolerance="10"
     guidetolerance="10"
     inkscape:pageopacity="0"
     inkscape:pageshadow="2"
     inkscape:window-width="1440"
     inkscape:window-height="845"
     id="namedview16"
     showgrid="false"
     inkscape:zoom="2.4603978"
     inkscape:cx="170.74856"
     inkscape:cy="52.532372"
     inkscape:window-x="0"
     inkscape:window-y="0"
     inkscape:window-maximized="1"
     inkscape:current-layer="svg2" />
  <metadata
     id="metadata4">
Created by potrace 1.12, written by Peter Selinger 2001-2015
<rdf:RDF>
  <cc:Work
     rdf:about="">
    <dc:format>image/svg+xml</dc:format>
    <dc:type
       rdf:resource="http://purl.org/dc/dcmitype/StillImage" />
    <dc:title></dc:title>
  </cc:Work>
</rdf:RDF>
</metadata>
  <g
     transform="translate(0.068509,84.051798) scale(0.100000,-0.100000)"
     id="g6"
     stroke="none"
     fill="#000000">
    <path
       d="M0 585 c0 -202 3 -255 12 -249 10 6 10 4 0 -7 -16 -17 -17 -329 -1 -329 6 0 8 8 5 18 -5 15 -5 15 6 2 18 -21 74 -25 82 -5 3 8 11 15 17 15 8 0 8 -4 -1 -15 -11 -13 110 -15 1078 -15 716 0 1093 3 1097 10 3 6 11 10 16 10 6 0 7 -4 4 -10 -4 -6 71 -9 205 -10 l210 0 0 29 c0 16 -6 32 -12 34 -10 4 -10 6 0 6 19 1 17 264 -3 281 -8 7 -15 17 -15 23 0 6 7 2 15 -9 13 -18 14 -17 15 18 0 20 -4 40 -10 43 -5 3 -10 14 -10 23 0 15 2 15 10 2 6 -10 10 53 10 188 l0 203 -732 -2 c-475 0 -739 -4 -751 -11 -14 -7 -17 -7 -13 1 5 7 -175 11 -614 11 l-620 0 0 -255z m1192 233 c17 17 33 15 18 -3 -7 -8 -21 -15 -31 -15 -11 0 -19 -4 -19 -9 0 -8 -25 -19 -65 -27 -11 -2 -36 -11 -56 -18 -28 -12 -39 -12 -49 -3 -9 8 -11 9 -6 1 9 -18 -94 -14 -121 4 -16 10 -23 11 -23 3 0 -7 -5 -9 -11 -5 -8 5 -6 10 5 16 9 5 20 7 25 3 5 -3 12 -1 16 5 3 5 0 10 -7 10 -9 0 -9 3 2 10 8 5 20 10 25 10 6 0 4 -4 -3 -9 -11 -6 -9 -9 6 -13 15 -4 19 -2 16 11 -2 9 2 3 9 -13 13 -26 14 -27 19 -8 3 12 1 23 -6 26 -6 3 0 3 13 2 14 -2 27 -9 30 -17 3 -8 15 -15 26 -17 18 -2 18 -2 3 8 -28 17 -21 30 15 25 25 -4 28 -3 12 4 -19 9 -18 10 5 12 14 1 42 3 63 3 32 1 35 -1 20 -11 -19 -15 -37 -17 -29 -5 3 5 -1 9 -9 9 -11 0 -12 -4 -4 -14 9 -10 7 -13 -9 -13 -12 0 -23 -4 -27 -9 -3 -6 8 -6 27 0 36 11 59 17 71 18 4 1 7 11 7 22 0 18 2 19 15 9 12 -10 19 -10 27 -2z m287 -8 c-10 -7 -49 -2 -49 5 0 2 14 3 31 3 17 -1 25 -4 18 -8z m-705 -24 c-18 -14 -18 -15 -1 -28 15 -12 11 -13 -37 -13 -30 0 -58 4 -63 8 -4 5 1 8 12 7 33 -4 45 -1 45 11 0 8 -4 9 -13 0 -8 -6 -17 -8 -20 -4 -10 9 -9 25 1 19 4 -2 14 -1 22 5 8 5 28 9 44 9 28 0 29 -1 10 -14z m1354 2 c24 -24 14 -64 -23 -97 -46 -40 -91 -42 -106 -5 -13 35 -4 58 32 89 32 27 77 33 97 13z m-1478 -7 c0 -8 -71 -22 -79 -15 -3 3 53 21 72 23 4 1 7 -3 7 -8z m708 -16 c64 -19 69 -34 52 -157 -6 -49 -10 -92 -7 -94 3 -3 32 0 66 7 71 15 92 6 74 -33 -8 -19 -18 -22 -77 -24 -37 -1 -70 -5 -73 -8 -3 -3 -8 -39 -11 -79 -6 -94 10 -147 43 -147 24 0 38 21 29 44 -10 25 18 30 38 6 26 -32 23 -82 -7 -118 -30 -36 -75 -47 -120 -28 -54 23 -67 54 -78 179 -5 62 -11 113 -12 115 -2 2 -13 -2 -26 -8 -19 -11 -25 -10 -36 6 -15 21 -18 80 -3 89 5 3 18 0 29 -7 13 -8 24 -9 29 -3 15 16 -7 173 -29 216 -10 21 -19 43 -19 49 0 15 79 12 138 -5z m-700 -20 c3 -3 -19 -5 -49 -4 -36 0 -48 3 -34 8 20 8 74 5 83 -4z m-261 -9 c5 -5 1 -7 -9 -3 -10 4 -18 2 -18 -4 0 -6 -6 -7 -12 -2 -7 4 -22 7 -33 5 -18 -2 -19 -1 -2 6 25 10 63 9 74 -2z m1888 -35 c0 -16 -3 -27 -7 -24 -13 7 -7 53 6 53 1 0 1 -13 1 -29z m-2061 -6 c11 -11 12 -23 5 -47 -5 -17 -7 -33 -5 -35 1 -2 46 17 98 42 119 56 138 58 138 10 l0 -35 38 16 c20 9 63 26 95 36 90 31 87 39 87 -256 0 -185 4 -266 14 -306 16 -60 14 -70 -14 -70 -25 0 -103 34 -117 52 -18 21 -18 65 2 290 11 114 16 210 12 214 -11 11 -51 -4 -87 -35 l-35 -29 0 -193 c1 -182 2 -197 23 -237 13 -23 20 -47 17 -52 -19 -30 -127 10 -164 61 -27 36 -26 51 3 318 9 74 13 138 10 142 -7 12 -127 -57 -136 -78 -3 -10 -7 -96 -7 -191 -1 -159 1 -176 19 -202 39 -55 -9 -81 -75 -40 -57 35 -65 73 -65 306 l0 205 -27 23 c-14 13 -23 28 -19 34 9 15 65 41 123 57 26 7 49 14 50 14 1 1 8 -6 17 -14z m1908 -56 c20 -11 21 -15 12 -158 -5 -80 -9 -191 -9 -246 l0 -100 -29 2 c-39 3 -73 37 -81 81 -4 21 -7 99 -6 175 1 135 0 139 -24 161 -14 13 -25 26 -25 29 0 8 67 48 98 57 38 11 41 11 64 -1z m-432 -14 c0 -8 6 -15 14 -15 7 0 30 7 49 15 20 8 56 15 81 15 37 0 48 -5 70 -31 21 -25 26 -41 26 -86 0 -71 -24 -112 -92 -153 l-51 -32 54 -54 c29 -30 62 -54 74 -54 28 0 49 -16 40 -30 -14 -23 -88 -70 -110 -70 -16 0 -40 22 -81 74 -32 41 -62 73 -65 70 -4 -2 -1 -32 7 -66 15 -65 11 -77 -28 -78 -79 -1 -101 56 -100 250 0 113 -3 150 -15 168 -20 32 -11 49 39 72 52 24 88 26 88 5z m862 -18 c51 2 90 -1 93 -7 4 -6 -3 -25 -14 -43 -12 -20 -18 -42 -15 -55 4 -13 0 -28 -11 -38 -11 -11 -14 -24 -9 -38 4 -12 10 -66 15 -121 4 -55 11 -114 15 -132 5 -28 3 -33 -19 -38 -17 -5 -41 1 -74 18 -45 22 -50 23 -72 8 -16 -10 -48 -15 -100 -16 -94 0 -127 20 -167 102 -38 77 -39 166 -2 238 31 61 59 87 118 115 37 17 54 19 100 13 30 -5 94 -7 142 -6z m-1397 -207 c0 -170 1 -177 27 -227 19 -37 23 -54 15 -62 -15 -15 -87 -13 -116 3 -21 12 -30 10 -79 -15 -61 -33 -134 -39 -181 -15 -46 24 -89 82 -107 143 -31 106 13 234 102 296 37 26 51 29 138 32 52 2 104 9 113 14 10 6 34 10 53 8 l35 -2 0 -175z m1462 34 c1 -18 -2 -23 -9 -16 -6 6 -8 18 -5 26 9 22 12 20 14 -10z m-7 -324 c-19 -11 -39 -19 -45 -19 -5 0 6 8 25 19 19 11 40 19 45 19 6 0 -6 -8 -25 -19z m-276 -10 c-12 -4 -24 -16 -28 -26 -3 -9 -9 -14 -12 -11 -12 12 18 47 39 46 22 0 22 0 1 -9z m-2274 -21 c0 -11 -5 -17 -10 -14 -6 4 -8 10 -5 15 3 4 -1 11 -7 13 -8 3 -6 6 5 6 11 1 17 -6 17 -20z"
       id="path8" />
    <path
       d="M1740 552 c-33 -16 -35 -20 -38 -72 -4 -61 10 -80 59 -80 44 0 80 38 86 91 5 40 2 48 -18 63 -30 20 -46 20 -89 -2z"
       id="path10" />
    <path
       d="M2400 533 c-37 -15 -73 -79 -85 -151 -5 -33 -2 -52 14 -86 27 -55 64 -73 114 -57 63 21 71 39 68 154 -2 97 -4 103 -29 124 -27 22 -53 27 -82 16z"
       id="path12" />
    <path
       d="M910 464 c-73 -62 -79 -193 -13 -266 31 -34 123 -16 156 31 13 20 10 51 -19 199 -4 22 -56 62 -81 62 -6 0 -25 -12 -43 -26z"
       id="path14" />
  </g>
</svg>
