<?xml version="1.0" encoding="UTF-8" standalone="no"?>
<!-- Created with Inkscape (http://www.inkscape.org/) -->

<svg
   xmlns:dc="http://purl.org/dc/elements/1.1/"
   xmlns:cc="http://creativecommons.org/ns#"
   xmlns:rdf="http://www.w3.org/1999/02/22-rdf-syntax-ns#"
   xmlns:svg="http://www.w3.org/2000/svg"
   xmlns="http://www.w3.org/2000/svg"
   xmlns:sodipodi="http://sodipodi.sourceforge.net/DTD/sodipodi-0.dtd"
   xmlns:inkscape="http://www.inkscape.org/namespaces/inkscape"
   width="744.09448"
   height="744.09448"
   viewBox="0 0 744.09448 744.09448"
   id="svg4940"
   version="1.1"
   inkscape:version="0.91 r13725"
   sodipodi:docname="logo-web.svg"
   inkscape:export-filename="/home/pablo/Proyectos/porloscerros/grafica/logo.png"
   inkscape:export-xdpi="300"
   inkscape:export-ydpi="300">
  <defs
     id="defs4942" />
  <sodipodi:namedview
     id="base"
     pagecolor="#ffffff"
     bordercolor="#666666"
     borderopacity="1.0"
     inkscape:pageopacity="1"
     inkscape:pageshadow="2"
     inkscape:zoom="0.83860317"
     inkscape:cx="372.04724"
     inkscape:cy="372.04724"
     inkscape:document-units="px"
     inkscape:current-layer="layer1"
     showgrid="false"
     inkscape:window-width="1440"
     inkscape:window-height="845"
     inkscape:window-x="0"
     inkscape:window-y="0"
     inkscape:window-maximized="1"
     units="px" />
  <metadata
     id="metadata4945">
    <rdf:RDF>
      <cc:Work
         rdf:about="">
        <dc:format>image/svg+xml</dc:format>
        <dc:type
           rdf:resource="http://purl.org/dc/dcmitype/StillImage" />
        <dc:title></dc:title>
      </cc:Work>
    </rdf:RDF>
  </metadata>
  <g
     inkscape:label="Capa 1"
     inkscape:groupmode="layer"
     id="layer1"
     transform="translate(0,-308.26772)">
    <g
       id="g3445"
       transform="translate(-154.13386,9.3446797e-6)">
      <path
         sodipodi:open="true"
         d="m 830.25292,-283.96161 a 303.0936,303.0936 0 0 1 -406.41109,-40.14946 303.0936,303.0936 0 0 1 2.48621,-408.38189 303.0936,303.0936 0 0 1 406.8698,-35.19824"
         sodipodi:end="5.3653007"
         sodipodi:start="0.93006036"
         sodipodi:ry="303.0936"
         sodipodi:rx="303.0936"
         sodipodi:cy="-526.93842"
         sodipodi:cx="649.06793"
         sodipodi:type="arc"
         transform="matrix(0,1,-1,0,0,0)"
         id="path3346"
         style="fill:#ffffff;stroke:#636b6f;stroke-width:3;stroke-miterlimit:4;stroke-dasharray:none;stroke-opacity:1" />
      <g
         style="fill:none;stroke:#636b6f;stroke-width:4.59964657;stroke-linejoin:round;stroke-miterlimit:4;stroke-dasharray:none;stroke-opacity:1"
         id="g3424-0-9"
         transform="matrix(0.65222402,0,0,0.65222402,319.03738,416.80461)">
        <g
           id="g3352-2-2"
           style="fill:none;stroke:#636b6f;stroke-width:4.59964657;stroke-linejoin:round;stroke-miterlimit:4;stroke-dasharray:none;stroke-opacity:1">
          <path
             inkscape:connector-curvature="0"
             id="path3348-3-2"
             d="m 335.22712,633.76272 -241.830508,0 160.108478,-318.54916 z"
             style="fill:none;fill-rule:evenodd;stroke:#636b6f;stroke-width:4.59964657;stroke-linecap:butt;stroke-linejoin:round;stroke-miterlimit:4;stroke-dasharray:none;stroke-opacity:1" />
          <path
             sodipodi:nodetypes="cccc"
             inkscape:connector-curvature="0"
             id="path3350-7-8"
             d="m 335.22712,633.76272 119.24746,0 -200.85212,-318.95313 z"
             style="fill:none;fill-rule:evenodd;stroke:#636b6f;stroke-width:4.59964657;stroke-linecap:butt;stroke-linejoin:round;stroke-miterlimit:4;stroke-dasharray:none;stroke-opacity:1" />
        </g>
        <path
           style="fill:none;fill-rule:evenodd;stroke:#636b6f;stroke-width:4.59964657;stroke-linecap:butt;stroke-linejoin:round;stroke-miterlimit:4;stroke-dasharray:none;stroke-opacity:1"
           d="m 219.35172,382.10692 21.22758,-12.97241 29.77759,12.67758 19.16379,-12.08793"
           id="path3396-5-9"
           inkscape:connector-curvature="0" />
      </g>
      <g
         transform="translate(2.1254777,-4.2855432)"
         id="g4803">
        <g
           id="g4799">
          <path
             inkscape:connector-curvature="0"
             id="path3348"
             d="m 476.41217,858.06669 -205.73557,0 136.21114,-270.65501 z"
             style="fill:#ffffff;fill-rule:evenodd;stroke:#636b6f;stroke-width:2.99810219;stroke-linecap:butt;stroke-linejoin:round;stroke-miterlimit:4;stroke-dasharray:none;stroke-opacity:1" />
          <path
             sodipodi:nodetypes="cccc"
             inkscape:connector-curvature="0"
             id="path3350"
             d="m 476.41217,858.06669 101.44892,0 -171.08175,-270.76034 z"
             style="fill:#ffffff;fill-rule:evenodd;stroke:#636b6f;stroke-width:2.99799991;stroke-linecap:butt;stroke-linejoin:round;stroke-miterlimit:4;stroke-dasharray:none;stroke-opacity:1" />
        </g>
        <path
           style="fill:none;fill-rule:evenodd;stroke:#636b6f;stroke-width:2.99810219;stroke-linecap:butt;stroke-linejoin:miter;stroke-miterlimit:4;stroke-dasharray:none;stroke-opacity:1"
           d="m 377.832,644.24757 18.05921,-11.022 25.33307,10.77149 16.30346,-10.27049"
           id="path3396"
           inkscape:connector-curvature="0" />
      </g>
      <g
         transform="matrix(0.8507419,0,0,0.8489969,193.34418,315.37144)"
         id="g3361"
         style="fill:#ffffff;stroke:#636b6f;stroke-width:3.52636695;stroke-miterlimit:4;stroke-dasharray:none;stroke-opacity:1">
        <path
           style="fill:#ffffff;fill-rule:evenodd;stroke:#636b6f;stroke-width:3.52636695;stroke-linecap:butt;stroke-linejoin:miter;stroke-miterlimit:4;stroke-dasharray:none;stroke-opacity:1"
           d="M 632.92882,633.76272 470.31865,232.65763"
           id="path3356"
           inkscape:connector-curvature="0" />
      </g>
      <g
         transform="translate(2.1254777,-4.2855432)"
         id="g4826">
        <g
           id="g4822">
          <path
             style="fill:#ffffff;fill-rule:evenodd;stroke:#636b6f;stroke-width:3.52636695;stroke-linecap:butt;stroke-linejoin:round;stroke-miterlimit:4;stroke-dasharray:none;stroke-opacity:1"
             d="m 470.31865,232.65763 -199.3017,401.10509 361.07798,0.8339"
             id="path3358"
             inkscape:connector-curvature="0"
             transform="matrix(0.8507419,0,0,0.8489969,191.2187,319.65698)" />
          <path
             inkscape:connector-curvature="0"
             id="path3365"
             d="m 729.67777,858.42754 48.95083,0 -187.29012,-341.24495 z"
             style="fill:#ffffff;fill-rule:evenodd;stroke:#636b6f;stroke-width:2.99694967;stroke-linecap:butt;stroke-linejoin:round;stroke-miterlimit:4;stroke-dasharray:none;stroke-opacity:1" />
        </g>
        <path
           style="fill:none;fill-rule:evenodd;stroke:#636b6f;stroke-width:2.99694967;stroke-linecap:butt;stroke-linejoin:miter;stroke-miterlimit:4;stroke-dasharray:none;stroke-opacity:1"
           d="m 550.8977,597.00672 28.84455,-11.01354 10.53453,10.26262 25.83468,-18.27246 23.82811,27.53384"
           id="path3398"
           inkscape:connector-curvature="0" />
      </g>
      <g
         transform="matrix(0.8507339,0,0,0.8507339,193.34803,314.96708)"
         id="g4584"
         style="stroke-width:3.52636695;stroke-miterlimit:4;stroke-dasharray:none">
        <ellipse
           style="fill:#ffffff;stroke:#636b6f;stroke-width:3.52636695;stroke-miterlimit:4;stroke-dasharray:none;stroke-opacity:1"
           id="path3375"
           cx="-211.8102"
           cy="218.06441"
           rx="45.00592"
           ry="40.83643"
           transform="scale(-1,1)" />
        <ellipse
           style="fill:#ffffff;stroke:#636b6f;stroke-width:3.52636695;stroke-miterlimit:4;stroke-dasharray:none;stroke-opacity:1"
           id="path3379"
           cx="-262.67798"
           cy="230.78136"
           rx="22.932203"
           ry="22.30678"
           transform="scale(-1,1)" />
        <ellipse
           style="fill:#ffffff;stroke:#636b6f;stroke-width:3.52636695;stroke-miterlimit:4;stroke-dasharray:none;stroke-opacity:1"
           id="path3379-3"
           cx="-161.77628"
           cy="229.73898"
           rx="22.932203"
           ry="22.30678"
           transform="scale(-1,1)" />
        <rect
           style="fill:#ffffff;stroke:none;stroke-width:3.52636695;stroke-miterlimit:4;stroke-dasharray:none"
           id="rect4376"
           width="29.177607"
           height="36.736076"
           x="168.59908"
           y="208.14059"
           ry="0" />
        <rect
           style="fill:#ffffff;stroke:none;stroke-width:3.52636695;stroke-miterlimit:4;stroke-dasharray:none"
           id="rect4376-1"
           width="29.177607"
           height="36.106205"
           x="225.81248"
           y="208.77048"
           ry="0" />
      </g>
      <g
         transform="matrix(0.8507339,0,0,0.8507339,193.34803,314.96708)"
         id="g4596"
         style="stroke-width:3.52636695;stroke-miterlimit:4;stroke-dasharray:none">
        <ellipse
           style="fill:#ffffff;stroke:#636b6f;stroke-width:3.52636695;stroke-miterlimit:4;stroke-dasharray:none;stroke-opacity:1"
           id="path3375-70"
           cx="-466.64688"
           cy="102.49171"
           rx="27.559013"
           ry="25.005859"
           transform="scale(-1,1)" />
        <ellipse
           style="fill:#ffffff;stroke:#636b6f;stroke-width:3.52636695;stroke-miterlimit:4;stroke-dasharray:none;stroke-opacity:1"
           id="path3379-9"
           cx="-497.79538"
           cy="110.27882"
           rx="14.04235"
           ry="13.659377"
           transform="scale(-1,1)" />
        <ellipse
           style="fill:#ffffff;stroke:#636b6f;stroke-width:3.52636695;stroke-miterlimit:4;stroke-dasharray:none;stroke-opacity:1"
           id="path3379-3-36"
           cx="-436.00903"
           cy="109.64053"
           rx="14.04235"
           ry="13.659377"
           transform="scale(-1,1)" />
        <rect
           style="fill:#ffffff;stroke:none;stroke-width:3.52636695;stroke-miterlimit:4;stroke-dasharray:none"
           id="rect4376-0"
           width="17.866673"
           height="22.495041"
           x="440.18692"
           y="96.41494"
           ry="0" />
        <rect
           style="fill:#ffffff;stroke:none;stroke-width:3.52636695;stroke-miterlimit:4;stroke-dasharray:none"
           id="rect4376-1-6"
           width="17.866673"
           height="22.109344"
           x="475.2211"
           y="96.800636"
           ry="0" />
      </g>
      <g
         transform="matrix(0.8507339,0,0,0.8507339,193.34803,314.96708)"
         id="g4608"
         style="stroke-width:3.52636695;stroke-miterlimit:4;stroke-dasharray:none">
        <ellipse
           style="fill:#ffffff;stroke:#636b6f;stroke-width:3.52636695;stroke-miterlimit:4;stroke-dasharray:none;stroke-opacity:1"
           id="path3375-1"
           cx="-608.40936"
           cy="228.88237"
           rx="30.897913"
           ry="28.035433"
           transform="scale(-1,1)" />
        <ellipse
           style="fill:#ffffff;stroke:#636b6f;stroke-width:3.52636695;stroke-miterlimit:4;stroke-dasharray:none;stroke-opacity:1"
           id="path3379-8"
           cx="-643.3316"
           cy="237.61295"
           rx="15.743645"
           ry="15.314273"
           transform="scale(-1,1)" />
        <ellipse
           style="fill:#ffffff;stroke:#636b6f;stroke-width:3.52636695;stroke-miterlimit:4;stroke-dasharray:none;stroke-opacity:1"
           id="path3379-3-7"
           cx="-574.05957"
           cy="236.89732"
           rx="15.743645"
           ry="15.314273"
           transform="scale(-1,1)" />
        <rect
           style="fill:#ffffff;stroke:none;stroke-width:3.52636695;stroke-miterlimit:4;stroke-dasharray:none"
           id="rect4376-9"
           width="20.031301"
           height="25.220417"
           x="578.74365"
           y="222.06938"
           ry="0" />
        <rect
           style="fill:#ffffff;stroke:none;stroke-width:3.52636695;stroke-miterlimit:4;stroke-dasharray:none"
           id="rect4376-1-2"
           width="20.031301"
           height="24.787991"
           x="618.02234"
           y="222.50182"
           ry="0" />
      </g>
      <path
         inkscape:connector-curvature="0"
         id="path4577"
         d="M 831.49027,854.82544 220.83384,853.81698"
         style="fill:#ffffff;fill-rule:evenodd;stroke:#636b6f;stroke-width:3;stroke-linecap:butt;stroke-linejoin:miter;stroke-miterlimit:4;stroke-dasharray:none;stroke-opacity:1" />
      <g
         id="g3416">
        <g
           transform="translate(2.1254777,-4.2855432)"
           style="font-style:normal;font-variant:normal;font-weight:normal;font-stretch:normal;font-size:77.65486908px;line-height:125%;font-family:Sawasdee;-inkscape-font-specification:Sawasdee;text-align:start;letter-spacing:0px;word-spacing:0px;writing-mode:lr-tb;text-anchor:start;fill:#636b6f;fill-opacity:1;stroke:none;stroke-width:1px;stroke-linecap:butt;stroke-linejoin:miter;stroke-opacity:1"
           id="flowRoot3361-1-9">
          <path
             d="m 224.94825,952.9913 0,-56.68654 20.09623,0 q 6.10471,0 10.35146,4.39842 4.24675,4.39842 4.24675,10.57896 0,6.25638 -4.24675,10.69271 -4.20884,4.43634 -10.23771,4.43634 l -16.79741,0 0,26.58011 -3.41257,0 z m 3.41257,-30.14435 16.79741,0 q 4.51218,0 7.73516,-3.37465 3.26089,-3.37465 3.26089,-8.19016 0,-4.81551 -3.26089,-8.19016 -3.2609,-3.41257 -7.84891,-3.41257 l -16.68366,0 0,23.16754 z"
             id="path3508"
             inkscape:connector-curvature="0" />
          <path
             d="m 286.4503,898.16272 q 5.30844,-2.27505 11.14772,-2.27505 5.83928,0 11.14772,2.27505 5.34636,2.27504 9.17602,6.14262 3.86757,3.86757 6.14262,9.21393 2.27504,5.34635 2.27504,11.22355 0,5.8772 -2.27504,11.22356 -2.27505,5.30844 -6.14262,9.17601 -3.82966,3.86758 -9.17602,6.14263 -5.30844,2.27504 -11.14772,2.27504 -5.83928,0 -11.14772,-2.27504 -5.30844,-2.27505 -9.1381,-6.14263 -3.82966,-3.86757 -6.1047,-9.17601 -2.27505,-5.34636 -2.27505,-11.22356 0,-5.8772 2.27505,-11.22355 2.27504,-5.34636 6.1047,-9.21393 3.82966,-3.86758 9.1381,-6.14262 z m -14.1432,26.5801 q 0,5.15677 1.97171,9.85853 2.00962,4.70176 5.38427,8.11433 3.37465,3.41257 8.07641,5.46011 4.70176,2.00962 9.85853,2.00962 5.19469,0 9.89645,-2.00962 4.70176,-2.04754 8.07641,-5.46011 3.37465,-3.41257 5.38427,-8.11433 2.00962,-4.70176 2.00962,-9.85853 0,-6.93888 -3.37465,-12.77817 -3.37465,-5.87719 -9.25185,-9.28976 -5.83928,-3.41257 -12.74025,-3.41257 -6.90097,0 -12.74025,3.41257 -5.80137,3.41257 -9.17602,9.28976 -3.37465,5.83929 -3.37465,12.77817 z"
             id="path3510"
             inkscape:connector-curvature="0" />
          <path
             d="m 337.33547,952.9913 0,-56.6107 20.09623,0 q 6.10471,0 10.35146,4.43633 4.24675,4.39842 4.24675,10.69272 0,5.34635 -3.33673,9.51727 -3.29882,4.133 -8.266,5.15677 l 14.67404,26.80761 -3.82966,0 -14.56029,-26.58011 -15.96323,0 0,26.58011 -3.41257,0 z m 3.41257,-29.95476 16.79742,0 q 4.51217,0 7.73515,-3.37465 3.2609,-3.37465 3.2609,-8.15224 0,-4.85343 -3.2609,-8.266 -3.2609,-3.45049 -7.84891,-3.45049 l -16.68366,0 0,23.24338 z"
             id="path3512"
             inkscape:connector-curvature="0" />
          <path
             d="m 415.90036,952.9913 -32.91231,0 0,-56.6107 3.41256,0 0,53.19813 29.49975,0 0,3.41257 z"
             id="path3514"
             inkscape:connector-curvature="0" />
          <path
             d="m 437.66495,898.16272 q 5.30844,-2.27505 11.14772,-2.27505 5.83928,0 11.14772,2.27505 5.34636,2.27504 9.17601,6.14262 3.86758,3.86757 6.14263,9.21393 2.27504,5.34635 2.27504,11.22355 0,5.8772 -2.27504,11.22356 -2.27505,5.30844 -6.14263,9.17601 -3.82965,3.86758 -9.17601,6.14263 -5.30844,2.27504 -11.14772,2.27504 -5.83928,0 -11.14772,-2.27504 -5.30844,-2.27505 -9.1381,-6.14263 -3.82966,-3.86757 -6.1047,-9.17601 -2.27505,-5.34636 -2.27505,-11.22356 0,-5.8772 2.27505,-11.22355 2.27504,-5.34636 6.1047,-9.21393 3.82966,-3.86758 9.1381,-6.14262 z m -14.1432,26.5801 q 0,5.15677 1.97171,9.85853 2.00962,4.70176 5.38427,8.11433 3.37465,3.41257 8.07641,5.46011 4.70176,2.00962 9.85853,2.00962 5.19469,0 9.89645,-2.00962 4.70175,-2.04754 8.07641,-5.46011 3.37465,-3.41257 5.38427,-8.11433 2.00962,-4.70176 2.00962,-9.85853 0,-6.93888 -3.37465,-12.77817 -3.37465,-5.87719 -9.25185,-9.28976 -5.83928,-3.41257 -12.74025,-3.41257 -6.90097,0 -12.74025,3.41257 -5.80137,3.41257 -9.17602,9.28976 -3.37465,5.83929 -3.37465,12.77817 z"
             id="path3516"
             inkscape:connector-curvature="0" />
          <path
             d="m 518.7703,906.39079 -3.22298,1.09961 q -1.32711,-4.05716 -4.39842,-6.14262 -3.03339,-2.08546 -6.63555,-2.08546 -4.3605,0 -7.12847,2.80589 -2.73006,2.80589 -2.73006,6.86305 0,2.08546 0.94794,3.79174 0.94793,1.70629 2.54047,2.91964 1.59253,1.21336 3.64007,2.27505 2.08545,1.02377 4.3605,1.9717 2.31296,0.94794 4.58801,2.00963 2.31296,1.02377 4.3605,2.3888 2.08546,1.36502 3.67799,3.03339 1.59253,1.66836 2.54047,4.09508 0.94793,2.42671 0.94793,5.38427 0,4.92927 -2.54046,8.83476 -2.54047,3.90549 -6.59764,5.95304 -4.05716,2.04754 -8.75892,2.04754 -3.07131,0 -5.8772,-0.98586 -2.80589,-0.98585 -5.2326,-2.91964 -2.42672,-1.9717 -4.133,-5.2326 -1.70628,-3.2609 -2.23713,-7.46973 l 3.37465,-0.41709 q 0.94794,6.82513 4.85343,10.19978 3.94341,3.33673 9.25185,3.33673 3.75383,0 7.01472,-1.55461 3.2609,-1.59253 5.34636,-4.70176 2.12337,-3.14715 2.12337,-7.20431 0,-2.54047 -0.94793,-4.58801 -0.94794,-2.04754 -2.54047,-3.45048 -1.59253,-1.40295 -3.67799,-2.57839 -2.04754,-1.17544 -4.3605,-2.12337 -2.27505,-0.98585 -4.58801,-1.97171 -2.27504,-0.98585 -4.3605,-2.19921 -2.04754,-1.21335 -3.64007,-2.65422 -1.59253,-1.44086 -2.54047,-3.52632 -0.94793,-2.12337 -0.94793,-4.73967 0,-5.46011 3.7159,-9.28977 3.71591,-3.86758 9.55519,-3.86758 4.55009,0 8.53142,2.84381 4.01925,2.80589 5.72553,7.8489 z"
             id="path3518"
             inkscape:connector-curvature="0" />
          <path
             d="m 580.49985,939.87187 2.73006,1.85796 q -3.94341,5.42219 -10.0102,8.56933 -6.06679,3.10923 -13.08151,3.10923 -5.83928,0 -11.14772,-2.27504 -5.30844,-2.27505 -9.1381,-6.14263 -3.82966,-3.86757 -6.1047,-9.21393 -2.27505,-5.34635 -2.27505,-11.22355 0,-5.8772 2.27505,-11.22356 2.27504,-5.34635 6.1047,-9.21393 3.82966,-3.86758 9.1381,-6.14262 5.30844,-2.27505 11.14772,-2.27505 6.97681,0 13.04359,3.18507 6.06679,3.14714 10.04812,8.60725 l -2.73006,2.00962 q -3.52632,-4.73967 -8.87267,-7.46973 -5.30844,-2.76797 -11.48898,-2.76797 -6.90097,0 -12.74025,3.41257 -5.80137,3.41257 -9.17602,9.28976 -3.37465,5.83929 -3.37465,12.77817 0,5.15677 1.97171,9.85853 2.00962,4.70176 5.38427,8.11433 3.37465,3.41257 8.07641,5.46011 4.70176,2.00962 9.85853,2.00962 6.18054,0 11.48898,-2.76797 5.34635,-2.76797 8.87267,-7.54557 z"
             id="path3520"
             inkscape:connector-curvature="0" />
          <path
             d="m 624.67366,918.41062 0,3.41256 -27.14887,0 0,27.75555 29.34808,0 0,3.41257 -32.76065,0 0,-56.6107 32.91232,0 0,3.41256 -29.49975,0 0,18.61746 27.14887,0 z"
             id="path3522"
             inkscape:connector-curvature="0" />
          <path
             d="m 635.66969,952.9913 0,-56.6107 20.09623,0 q 6.1047,0 10.35145,4.43633 4.24675,4.39842 4.24675,10.69272 0,5.34635 -3.33673,9.51727 -3.29882,4.133 -8.266,5.15677 l 14.67404,26.80761 -3.82966,0 -14.56028,-26.58011 -15.96324,0 0,26.58011 -3.41256,0 z m 3.41256,-29.95476 16.79742,0 q 4.51217,0 7.73515,-3.37465 3.2609,-3.37465 3.2609,-8.15224 0,-4.85343 -3.2609,-8.266 -3.2609,-3.45049 -7.8489,-3.45049 l -16.68367,0 0,23.24338 z"
             id="path3524"
             inkscape:connector-curvature="0" />
          <path
             d="m 681.32227,952.9913 0,-56.6107 20.09624,0 q 6.1047,0 10.35145,4.43633 4.24675,4.39842 4.24675,10.69272 0,5.34635 -3.33673,9.51727 -3.29882,4.133 -8.266,5.15677 l 14.67404,26.80761 -3.82966,0 -14.56029,-26.58011 -15.96323,0 0,26.58011 -3.41257,0 z m 3.41257,-29.95476 16.79742,0 q 4.51217,0 7.73515,-3.37465 3.2609,-3.37465 3.2609,-8.15224 0,-4.85343 -3.2609,-8.266 -3.2609,-3.45049 -7.8489,-3.45049 l -16.68367,0 0,23.24338 z"
             id="path3526"
             inkscape:connector-curvature="0" />
          <path
             d="m 742.82431,898.16272 q 5.30844,-2.27505 11.14772,-2.27505 5.83928,0 11.14772,2.27505 5.34636,2.27504 9.17602,6.14262 3.86757,3.86757 6.14262,9.21393 2.27504,5.34635 2.27504,11.22355 0,5.8772 -2.27504,11.22356 -2.27505,5.30844 -6.14262,9.17601 -3.82966,3.86758 -9.17602,6.14263 -5.30844,2.27504 -11.14772,2.27504 -5.83928,0 -11.14772,-2.27504 -5.30844,-2.27505 -9.1381,-6.14263 -3.82965,-3.86757 -6.1047,-9.17601 -2.27504,-5.34636 -2.27504,-11.22356 0,-5.8772 2.27504,-11.22355 2.27505,-5.34636 6.1047,-9.21393 3.82966,-3.86758 9.1381,-6.14262 z m -14.14319,26.5801 q 0,5.15677 1.9717,9.85853 2.00962,4.70176 5.38427,8.11433 3.37465,3.41257 8.07641,5.46011 4.70176,2.00962 9.85853,2.00962 5.19469,0 9.89645,-2.00962 4.70176,-2.04754 8.07641,-5.46011 3.37465,-3.41257 5.38427,-8.11433 2.00962,-4.70176 2.00962,-9.85853 0,-6.93888 -3.37465,-12.77817 -3.37465,-5.87719 -9.25185,-9.28976 -5.83928,-3.41257 -12.74025,-3.41257 -6.90097,0 -12.74025,3.41257 -5.80136,3.41257 -9.17601,9.28976 -3.37465,5.83929 -3.37465,12.77817 z"
             id="path3528"
             inkscape:connector-curvature="0" />
          <path
             d="m 823.92966,906.39079 -3.22298,1.09961 q -1.32711,-4.05716 -4.39842,-6.14262 -3.03339,-2.08546 -6.63555,-2.08546 -4.3605,0 -7.12847,2.80589 -2.73005,2.80589 -2.73005,6.86305 0,2.08546 0.94793,3.79174 0.94794,1.70629 2.54047,2.91964 1.59253,1.21336 3.64007,2.27505 2.08546,1.02377 4.3605,1.9717 2.31297,0.94794 4.58801,2.00963 2.31296,1.02377 4.3605,2.3888 2.08546,1.36502 3.67799,3.03339 1.59253,1.66836 2.54047,4.09508 0.94793,2.42671 0.94793,5.38427 0,4.92927 -2.54046,8.83476 -2.54047,3.90549 -6.59763,5.95304 -4.05717,2.04754 -8.75893,2.04754 -3.07131,0 -5.8772,-0.98586 -2.80588,-0.98585 -5.2326,-2.91964 -2.42671,-1.9717 -4.133,-5.2326 -1.70628,-3.2609 -2.23712,-7.46973 l 3.37465,-0.41709 q 0.94793,6.82513 4.85342,10.19978 3.94342,3.33673 9.25185,3.33673 3.75383,0 7.01473,-1.55461 3.26089,-1.59253 5.34635,-4.70176 2.12338,-3.14715 2.12338,-7.20431 0,-2.54047 -0.94794,-4.58801 -0.94793,-2.04754 -2.54047,-3.45048 -1.59253,-1.40295 -3.67798,-2.57839 -2.04754,-1.17544 -4.36051,-2.12337 -2.27504,-0.98585 -4.588,-1.97171 -2.27505,-0.98585 -4.36051,-2.19921 -2.04754,-1.21335 -3.64007,-2.65422 -1.59253,-1.44086 -2.54047,-3.52632 -0.94793,-2.12337 -0.94793,-4.73967 0,-5.46011 3.7159,-9.28977 3.71591,-3.86758 9.55519,-3.86758 4.55009,0 8.53142,2.84381 4.01925,2.80589 5.72553,7.8489 z"
             id="path3530"
             inkscape:connector-curvature="0" />
        </g>
        <g
           transform="translate(2.1254777,-4.2855432)"
           style="font-style:normal;font-variant:normal;font-weight:normal;font-stretch:normal;font-size:58.2411499px;line-height:125%;font-family:Sawasdee;-inkscape-font-specification:Sawasdee;text-align:start;letter-spacing:0px;word-spacing:0px;writing-mode:lr-tb;text-anchor:start;fill:#636b6f;fill-opacity:1;stroke:none;stroke-width:1px;stroke-linecap:butt;stroke-linejoin:miter;stroke-opacity:1"
           id="flowRoot3361-1-9-5">
          <path
             d="m 469.55224,1019.951 -2.73005,0 q -0.48345,-1.6779 -0.48345,-3.8107 l 0,-3.5832 q -1.08064,2.9576 -4.29414,5.4032 -3.18507,2.4173 -6.39857,2.4173 -3.61163,0 -6.6545,-2.0191 -3.01444,-2.0191 -4.74916,-5.4317 -1.70628,-3.441 -1.70628,-7.4223 0,-3.9814 1.70628,-7.3655 1.73472,-3.41257 4.74916,-5.43167 3.04287,-2.04754 6.6545,-2.04754 3.27038,0 6.45544,2.3888 3.18506,2.36036 4.23727,5.4601 l 0,-21.01572 2.53099,0 0,38.64733 q 0,2.4457 0.68251,3.8107 z m -6.39856,-5.7161 q 3.18506,-3.6116 3.18506,-8.7304 0,-5.1189 -3.15662,-8.70209 -3.15663,-3.5832 -7.53609,-3.5832 -4.35102,0 -7.53608,3.5832 -3.18507,3.58319 -3.18507,8.70209 0,5.0904 3.18507,8.7304 3.18506,3.6117 7.53608,3.6117 4.35102,0 7.50765,-3.6117 z"
             style="font-size:58.2411499px"
             id="path3481"
             inkscape:connector-curvature="0" />
          <path
             d="m 479.9037,1003.0872 20.95885,0 q -0.79627,-4.29413 -3.75383,-7.08106 -2.95756,-2.78693 -6.76826,-2.78693 -3.78226,0 -6.73982,2.78693 -2.92912,2.78693 -3.69694,7.08106 z m 23.74578,2.4173 -24.14392,0 q 0,5.0904 3.18507,8.6451 3.18506,3.5548 7.53608,3.5548 2.87225,0 5.63074,-1.5357 2.75849,-1.5356 4.20883,-4.1235 l 2.24661,1.2797 q -1.73472,3.0998 -5.11885,5.0904 -3.38413,1.9623 -6.96733,1.9623 -3.61163,0 -6.6545,-2.0191 -3.01444,-2.0191 -4.74916,-5.4317 -1.70628,-3.441 -1.70628,-7.4223 0,-3.9529 1.73472,-7.3655 1.76316,-3.41257 4.80603,-5.43167 3.07131,-2.04754 6.68294,-2.04754 3.41257,0 6.34169,1.84847 2.95756,1.82004 4.7776,4.91979 1.82003,3.09975 2.13285,6.79665 l 0.0569,1.2798 z"
             style="font-size:58.2411499px"
             id="path3483"
             inkscape:connector-curvature="0" />
          <path
             d="m 527.19619,996.20521 -2.36036,0.8247 q -0.5972,-1.90535 -2.0191,-2.90068 -1.4219,-1.02377 -3.04287,-1.02377 -1.87691,0 -3.2135,1.1944 -1.30815,1.1944 -1.30815,3.24194 0,1.08065 0.5972,1.96223 0.5972,0.88157 1.56409,1.45037 0.96689,0.5687 2.18973,1.1659 1.25128,0.5972 2.53099,1.1091 1.27971,0.5119 2.50255,1.2797 1.25127,0.7679 2.21817,1.6494 0.96689,0.8816 1.56409,2.2751 0.5972,1.3934 0.5972,3.1282 0,3.9529 -2.81537,6.427 -2.81537,2.4456 -6.54075,2.4456 -1.62097,0 -3.09975,-0.5118 -1.47878,-0.5404 -2.73006,-1.5641 -1.25127,-1.0238 -2.13285,-2.7301 -0.88158,-1.7063 -1.13752,-3.896 l 2.53098,-0.3697 q 0.39814,3.2419 2.24661,4.8913 1.87691,1.6495 4.37946,1.6495 2.64474,0 4.69228,-1.7632 2.04754,-1.7916 2.04754,-4.5785 0,-1.5357 -0.76782,-2.7017 -0.76783,-1.1944 -1.99067,-1.9337 -1.1944,-0.7394 -2.67318,-1.3935 -1.47878,-0.6541 -2.95755,-1.3366 -1.47878,-0.6825 -2.70162,-1.4788 -1.1944,-0.8247 -1.96223,-2.1328 -0.76782,-1.33662 -0.76782,-3.0429 0,-3.18506 2.10441,-5.06197 2.13286,-1.87692 5.03354,-1.87692 2.3888,0 4.46477,1.45034 2.07598,1.42191 2.95756,4.15196 z"
             style="font-size:58.2411499px"
             id="path3485"
             inkscape:connector-curvature="0" />
          <path
             d="m 558.56338,1019.951 -2.73006,0 q -0.51188,-1.621 -0.51188,-3.8107 l 0,-2.2466 q -2.04754,2.8438 -4.91979,4.6923 -2.8438,1.8484 -6.02887,1.8484 -2.30348,0 -4.12351,-0.7109 -1.7916,-0.7394 -2.84381,-1.9338 -1.05221,-1.1944 -1.59253,-2.531 -0.54033,-1.365 -0.54033,-2.7585 0,-1.4503 0.42658,-2.6732 0.455,-1.2228 1.13752,-2.0759 0.71095,-0.8816 1.84847,-1.5641 1.16596,-0.711 2.21817,-1.1376 1.08065,-0.455 2.67318,-0.7678 1.59253,-0.3412 2.75849,-0.4834 1.16596,-0.1707 2.90068,-0.256 1.73472,-0.085 2.73006,-0.085 1.02377,-0.028 2.58786,-0.028 l 0.76783,0 q -0.14219,-4.6923 -2.78693,-7.47923 -2.6163,-2.78693 -6.05731,-2.78693 -2.0191,0 -3.95289,1.05221 -1.90535,1.05221 -3.32725,3.07131 l -2.01911,-1.33659 q 1.73473,-2.67318 4.1804,-4.00977 2.44567,-1.33659 5.11885,-1.33659 2.16129,0 4.15196,0.88158 2.0191,0.85314 3.61163,2.44568 1.59253,1.56409 2.55943,4.0382 0.99533,2.47413 1.05221,5.46013 l 0,12.7118 q 0,2.4741 0.71095,3.8107 z m -14.1906,-2.0475 q 3.27038,0 6.34169,-2.1898 3.07131,-2.1897 4.60697,-5.0051 l 0,-5.4601 q -1.33659,0.029 -2.24661,0.057 -0.88158,0.028 -2.44567,0.1422 -1.53566,0.085 -2.6163,0.2275 -1.08065,0.1137 -2.53099,0.3981 -1.4219,0.2844 -2.41724,0.6541 -0.99533,0.3413 -2.07598,0.91 -1.0522,0.5403 -1.70628,1.2228 -0.65407,0.6541 -1.08065,1.5926 -0.39813,0.9384 -0.39813,2.0475 0,2.0476 1.70629,3.7254 1.70628,1.6779 4.8629,1.6779 z"
             style="font-size:58.2411499px"
             id="path3487"
             inkscape:connector-curvature="0" />
          <path
             d="m 566.61134,991.1148 2.73006,0 q 0.54032,1.87691 0.54032,3.8107 l 0,3.58319 q 0.65408,-2.18973 3.04287,-4.55009 2.3888,-2.36035 4.80604,-3.29881 l 2.8438,2.0191 q -2.50255,0 -5.0051,1.76316 -2.47411,1.76316 -4.09508,4.69228 -1.59253,2.90067 -1.59253,6.00047 l 0,14.8162 -2.55943,0 0,-25.0255 q 0,-2.44567 -0.71095,-3.8107 z"
             style="font-size:58.2411499px"
             id="path3489"
             inkscape:connector-curvature="0" />
          <path
             d="m 585.03921,991.1148 2.73005,0 q 0.54032,1.87691 0.54032,3.8107 l 0,3.58319 q 0.65408,-2.18973 3.04288,-4.55009 2.38879,-2.36035 4.80603,-3.29881 l 2.84381,2.0191 q -2.50255,0 -5.0051,1.76316 -2.47411,1.76316 -4.09508,4.69228 -1.59254,2.90067 -1.59254,6.00047 l 0,14.8162 -2.55942,0 0,-25.0255 q 0,-2.44567 -0.71095,-3.8107 z"
             style="font-size:58.2411499px"
             id="path3491"
             inkscape:connector-curvature="0" />
          <path
             d="m 617.68611,990.65979 q 2.986,0 5.71605,1.16596 2.73005,1.16596 4.72072,3.15662 1.99066,1.99067 3.15662,4.74916 1.16596,2.75847 1.16596,5.77297 0,3.0428 -1.16596,5.8013 -1.16596,2.7585 -3.15662,4.7492 -1.99067,1.9622 -4.72072,3.1566 -2.73005,1.166 -5.71605,1.166 -6.11418,0 -10.43677,-4.3511 -4.32258,-4.351 -4.32258,-10.522 0,-4.0382 1.96222,-7.45081 1.99067,-3.44101 5.3748,-5.40324 3.41256,-1.99066 7.42233,-1.99066 z m -12.22837,14.84471 q 0,5.0904 3.5832,8.7304 3.61163,3.6117 8.70205,3.6117 5.09041,0 8.6736,-3.6117 3.61164,-3.64 3.61164,-8.7304 0,-5.062 -3.61164,-8.67365 -3.58319,-3.61164 -8.6736,-3.61164 -5.09042,0 -8.70205,3.61164 -3.5832,3.61165 -3.5832,8.67365 z"
             style="font-size:58.2411499px"
             id="path3493"
             inkscape:connector-curvature="0" />
          <path
             d="m 643.25192,1019.951 -2.55942,0 0,-42.45803 2.55942,0 0,42.45803 z"
             style="font-size:58.2411499px"
             id="path3495"
             inkscape:connector-curvature="0" />
          <path
             d="m 655.30966,1019.951 -2.55942,0 0,-42.45803 2.55942,0 0,42.45803 z"
             style="font-size:58.2411499px"
             id="path3497"
             inkscape:connector-curvature="0" />
          <path
             d="m 678.31605,990.65979 q 2.986,0 5.71605,1.16596 2.73006,1.16596 4.72072,3.15662 1.99067,1.99067 3.15663,4.74916 1.16596,2.75847 1.16596,5.77297 0,3.0428 -1.16596,5.8013 -1.16596,2.7585 -3.15663,4.7492 -1.99066,1.9622 -4.72072,3.1566 -2.73005,1.166 -5.71605,1.166 -6.11418,0 -10.43676,-4.3511 -4.32259,-4.351 -4.32259,-10.522 0,-4.0382 1.96223,-7.45081 1.99066,-3.44101 5.37479,-5.40324 3.41257,-1.99066 7.42233,-1.99066 z m -12.22836,14.84471 q 0,5.0904 3.58319,8.7304 3.61164,3.6117 8.70205,3.6117 5.09041,0 8.67361,-3.6117 3.61163,-3.64 3.61163,-8.7304 0,-5.062 -3.61163,-8.67365 -3.5832,-3.61164 -8.67361,-3.61164 -5.09041,0 -8.70205,3.61164 -3.58319,3.61165 -3.58319,8.67365 z"
             style="font-size:58.2411499px"
             id="path3499"
             inkscape:connector-curvature="0" />
          <path
             d="m 718.38528,991.1148 2.78693,0 9.44144,22.5514 9.66894,-23.06329 9.69738,23.06329 9.21393,-22.5514 2.73005,0 -11.94398,29.3196 -9.7827,-23.03479 -9.66894,23.03479 -12.14305,-29.3196 z"
             style="font-size:58.2411499px"
             id="path3501"
             inkscape:connector-curvature="0" />
          <path
             d="m 769.17565,1003.0872 20.95885,0 q -0.79627,-4.29413 -3.75383,-7.08106 -2.95756,-2.78693 -6.76826,-2.78693 -3.78226,0 -6.73982,2.78693 -2.92912,2.78693 -3.69694,7.08106 z m 23.74578,2.4173 -24.14392,0 q 0,5.0904 3.18507,8.6451 3.18506,3.5548 7.53608,3.5548 2.87225,0 5.63074,-1.5357 2.75849,-1.5356 4.20883,-4.1235 l 2.24661,1.2797 q -1.73472,3.0998 -5.11885,5.0904 -3.38413,1.9623 -6.96733,1.9623 -3.61163,0 -6.6545,-2.0191 -3.01444,-2.0191 -4.74916,-5.4317 -1.70628,-3.441 -1.70628,-7.4223 0,-3.9529 1.73472,-7.3655 1.76316,-3.41257 4.80603,-5.43167 3.07131,-2.04754 6.68294,-2.04754 3.41257,0 6.34169,1.84847 2.95756,1.82004 4.7776,4.91979 1.82003,3.09975 2.13285,6.79665 l 0.0569,1.2798 z"
             style="font-size:58.2411499px"
             id="path3503"
             inkscape:connector-curvature="0" />
          <path
             d="m 803.10227,1019.951 -2.73005,0 q 0.71095,-1.4219 0.71095,-3.8107 l 0,-38.64733 2.55942,0 0,21.01572 q 1.05221,-3.09974 4.20884,-5.4601 3.18506,-2.3888 6.48387,-2.3888 3.61164,0 6.62607,2.04754 3.01444,2.0191 4.72072,5.43167 1.73472,3.4126 1.73472,7.3655 0,3.9813 -1.73472,7.4223 -1.70628,3.4126 -4.72072,5.4317 -3.01443,2.0191 -6.62607,2.0191 -3.24194,0 -6.427,-2.4173 -3.18506,-2.4456 -4.26571,-5.4032 l 0,3.5832 q 0,1.9338 -0.54032,3.8107 z m 3.69695,-23.14859 q -3.15663,3.58319 -3.15663,8.70209 0,5.1188 3.15663,8.7304 3.15662,3.6117 7.53608,3.6117 4.32259,0 7.50765,-3.6117 3.18506,-3.64 3.18506,-8.7304 0,-5.1189 -3.18506,-8.70209 -3.18506,-3.5832 -7.50765,-3.5832 -4.37946,0 -7.53608,3.5832 z"
             style="font-size:58.2411499px"
             id="path3505"
             inkscape:connector-curvature="0" />
        </g>
      </g>
    </g>
  </g>
</svg>
